<svg width="36" height="36" viewBox="0 0 36 36" fill="none" xmlns="http://www.w3.org/2000/svg">
<path fill-rule="evenodd" clip-rule="evenodd" d="M2.94604 10.4866V25.0901C2.94604 25.715 3.29378 26.3128 3.86281 26.6931L16.5079 35.1429C16.9347 35.4282 17.4563 35.5777 17.9621 35.5777C18.4679 35.5777 18.9895 35.4282 19.4163 35.1429L29.7079 28.2658L23.1519 23.9103L17.9621 27.3783L9.97483 22.041V15.1561L2.94604 10.4866Z" fill="url(#paint0_linear_2776_115529)"/>
<path fill-rule="evenodd" clip-rule="evenodd" d="M18.0842 7.76626L26.0794 11.3063V21.4238L32.8475 25.9201C33.0155 25.6363 33.1082 25.3206 33.1082 25.005V7.6299C33.1082 6.74688 32.4601 5.97255 31.4801 5.70085L18.835 0.101887C18.345 -0.0339622 17.8234 -0.0339622 17.3334 0.101887L4.68835 5.70085C4.20603 5.83676 3.80282 6.09845 3.52026 6.4366L10.5459 11.1041L18.0842 7.76626Z" fill="url(#paint1_linear_2776_115529)"/>
<mask id="mask0_2776_115529" style="mask-type:alpha" maskUnits="userSpaceOnUse" x="3" y="0" width="31" height="26">
<path fill-rule="evenodd" clip-rule="evenodd" d="M18.0842 7.76626L26.0794 11.3063V21.4238L32.8475 25.9201C33.0155 25.6363 33.1082 25.3206 33.1082 25.005V7.6299C33.1082 6.74688 32.4601 5.97255 31.4801 5.70085L18.835 0.101887C18.345 -0.0339622 17.8234 -0.0339622 17.3334 0.101887L4.68835 5.70085C4.20603 5.83676 3.80282 6.09845 3.52026 6.4366L10.5459 11.1041L18.0842 7.76626Z" fill="url(#paint2_linear_2776_115529)"/>
</mask>
<g mask="url(#mask0_2776_115529)">
<path fill-rule="evenodd" clip-rule="evenodd" d="M32.0725 7.64351C32.0725 7.64351 19.8495 15.8111 19.4226 16.0965C18.9956 16.3819 17.9678 16.8908 17.9678 16.8908C17.9678 16.8908 16.94 16.3819 16.5131 16.0965C16.0861 15.8111 3.86316 7.64351 3.86316 7.64351C3.29392 7.26299 2.94604 6.66503 2.94604 6.03988L2.94604 -11.3418C2.94604 -12.2252 3.59435 -12.9998 4.55891 -13.2716L17.2088 -18.8727C17.699 -19.0086 18.2208 -19.0086 18.711 -18.8727L31.3609 -13.2716C32.3413 -12.9998 32.9896 -12.2252 32.9896 -11.3418V6.03988C32.9896 6.65144 32.6417 7.26299 32.0725 7.64351Z" fill="white" fill-opacity="0.3"/>
</g>
<mask id="mask1_2776_115529" style="mask-type:alpha" maskUnits="userSpaceOnUse" x="2" y="10" width="28" height="26">
<path fill-rule="evenodd" clip-rule="evenodd" d="M2.94604 10.4866V25.0901C2.94604 25.715 3.29378 26.3128 3.86281 26.6931L16.5079 35.1429C16.9347 35.4282 17.4563 35.5777 17.9621 35.5777C18.4679 35.5777 18.9895 35.4282 19.4163 35.1429L29.7079 28.2658L23.1519 23.9103L17.9621 27.3783L9.97483 22.041V15.1561L2.94604 10.4866Z" fill="url(#paint3_linear_2776_115529)"/>
</mask>
<g mask="url(#mask1_2776_115529)">
<path fill-rule="evenodd" clip-rule="evenodd" d="M3.86307 24.7723C3.86307 24.7723 16.0861 16.6046 16.513 16.3193C16.9399 16.0339 17.9677 15.525 17.9677 15.525C17.9677 15.525 18.9955 16.0339 19.4225 16.3193C19.8494 16.6046 32.0724 24.7723 32.0724 24.7723C32.6416 25.1528 32.9895 25.7507 32.9895 26.3759L32.9895 43.7576C32.9895 44.6409 32.3412 45.4156 31.3766 45.6874L18.7267 51.2885C18.2365 51.4244 17.7147 51.4244 17.2245 51.2885L4.57463 45.6874C3.59426 45.4156 2.94595 44.6409 2.94595 43.7576L2.94595 26.3759C2.94595 25.7643 3.29383 25.1528 3.86307 24.7723Z" fill="white" fill-opacity="0.3"/>
</g>
<defs>
<linearGradient id="paint0_linear_2776_115529" x1="10.3343" y1="27.5941" x2="28.5023" y2="21.6412" gradientUnits="userSpaceOnUse">
<stop stop-color="#008CB8"/>
<stop offset="1" stop-color="#00DAE8"/>
</linearGradient>
<linearGradient id="paint1_linear_2776_115529" x1="11.6887" y1="17.6728" x2="31.496" y2="10.7268" gradientUnits="userSpaceOnUse">
<stop stop-color="#008CB8"/>
<stop offset="1" stop-color="#00DAE8"/>
</linearGradient>
<linearGradient id="paint2_linear_2776_115529" x1="11.6887" y1="17.6728" x2="31.496" y2="10.7268" gradientUnits="userSpaceOnUse">
<stop stop-color="#008CB8"/>
<stop offset="1" stop-color="#00DAE8"/>
</linearGradient>
<linearGradient id="paint3_linear_2776_115529" x1="10.3343" y1="27.5941" x2="28.5023" y2="21.6412" gradientUnits="userSpaceOnUse">
<stop stop-color="#008CB8"/>
<stop offset="1" stop-color="#00DAE8"/>
</linearGradient>
</defs>
</svg>
