<svg width="135" height="45" viewBox="0 0 135 45" fill="none" xmlns="http://www.w3.org/2000/svg">
<path d="M0.112305 16.4561H4.4003V18.6961H4.4643C5.06164 17.8428 5.77631 17.1814 6.6083 16.7121C7.46164 16.2428 8.43231 16.0081 9.52031 16.0081C10.5656 16.0081 11.515 16.2108 12.3683 16.6161C13.243 17.0214 13.9043 17.7361 14.3523 18.7601C14.843 18.0348 15.5043 17.3948 16.3363 16.8401C17.1896 16.2854 18.1923 16.0081 19.3443 16.0081C20.219 16.0081 21.0296 16.1148 21.7763 16.3281C22.523 16.5414 23.163 16.8828 23.6963 17.3521C24.2296 17.8214 24.6456 18.4401 24.9443 19.2081C25.243 19.9548 25.3923 20.8614 25.3923 21.9281V33.0001H20.8483V23.6241C20.8483 23.0694 20.827 22.5468 20.7843 22.0561C20.7416 21.5654 20.6243 21.1388 20.4323 20.7761C20.2403 20.4134 19.9523 20.1254 19.5683 19.9121C19.2056 19.6988 18.7043 19.5921 18.0643 19.5921C17.4243 19.5921 16.9016 19.7201 16.4963 19.9761C16.1123 20.2108 15.803 20.5308 15.5683 20.9361C15.355 21.3201 15.2056 21.7681 15.1203 22.2801C15.0563 22.7708 15.0243 23.2721 15.0243 23.7841V33.0001H10.4803V23.7201C10.4803 23.2294 10.4696 22.7494 10.4483 22.2801C10.427 21.7894 10.331 21.3414 10.1603 20.9361C10.011 20.5308 9.7443 20.2108 9.3603 19.9761C8.99764 19.7201 8.45364 19.5921 7.7283 19.5921C7.51497 19.5921 7.22697 19.6454 6.86431 19.7521C6.52297 19.8374 6.18164 20.0188 5.84031 20.2961C5.52031 20.5521 5.24297 20.9361 5.00831 21.4481C4.77364 21.9388 4.6563 22.5894 4.6563 23.4001V33.0001H0.112305V16.4561Z" fill="#2B3B4A"/>
<path d="M30.9363 19.4961H28.2163V16.4561H30.9363V15.1761C30.9363 13.7041 31.395 12.4988 32.3123 11.5601C33.2296 10.6214 34.6163 10.1521 36.4723 10.1521C36.8776 10.1521 37.283 10.1734 37.6883 10.2161C38.0936 10.2374 38.4883 10.2588 38.8723 10.2801V13.6721C38.339 13.6081 37.7843 13.5761 37.2083 13.5761C36.5896 13.5761 36.1416 13.7254 35.8643 14.0241C35.6083 14.3014 35.4803 14.7814 35.4803 15.4641V16.4561H38.6163V19.4961H35.4803V33.0001H30.9363V19.4961Z" fill="#2B3B4A"/>
<path d="M41.5606 16.4561H45.8806V19.5281H45.9446C46.1579 19.0161 46.4459 18.5468 46.8086 18.1201C47.1712 17.6721 47.5872 17.2988 48.0566 17.0001C48.5259 16.6801 49.0272 16.4348 49.5606 16.2641C50.0939 16.0934 50.6486 16.0081 51.2246 16.0081C51.5232 16.0081 51.8539 16.0614 52.2166 16.1681V20.3921C52.0032 20.3494 51.7472 20.3174 51.4486 20.2961C51.1499 20.2534 50.8619 20.2321 50.5846 20.2321C49.7526 20.2321 49.0486 20.3708 48.4726 20.6481C47.8966 20.9254 47.4272 21.3094 47.0646 21.8001C46.7232 22.2694 46.4779 22.8241 46.3286 23.4641C46.1792 24.1041 46.1046 24.7974 46.1046 25.5441V33.0001H41.5606V16.4561Z" fill="#2B3B4A"/>
<path d="M64.6643 24.1681H70.5843L67.7043 15.7841H67.6403L64.6643 24.1681ZM65.1443 10.1521H70.2963L78.8403 33.0001H73.6243L71.8963 27.9121H63.3523L61.5603 33.0001H56.5043L65.1443 10.1521Z" fill="#2B3B4A"/>
<path d="M81.7706 10.1521H86.7946V33.0001H81.7706V10.1521Z" fill="#2B3B4A"/>
<path fill-rule="evenodd" clip-rule="evenodd" d="M49.0391 32.4412C49.0131 32.3984 49.0009 32.3551 49 32.3147C48.9987 32.2475 49.0284 32.1873 49.0762 32.1455L49.5196 31.7586C49.5075 31.674 49.5001 31.5877 49.5001 31.5C49.5001 31.4123 49.5075 31.326 49.5196 31.2414L49.0762 30.8545C48.9997 30.7877 48.9699 30.673 49.0391 30.5588L49.4141 29.9412C49.4834 29.827 49.6021 29.7943 49.7012 29.824L50.2735 29.9952C50.4169 29.889 50.5755 29.8009 50.7462 29.7347L50.8751 29.1786C50.8976 29.082 50.9866 29 51.1251 29L51.8751 29C52.0136 29 52.1026 29.082 52.1251 29.1786L52.254 29.7347C52.4247 29.8009 52.5833 29.889 52.7267 29.9952L53.299 29.824C53.398 29.7943 53.5168 29.827 53.5861 29.9412L53.9611 30.5588C54.0303 30.673 54.0005 30.7877 53.924 30.8545L53.4806 31.2414C53.4926 31.326 53.5001 31.4123 53.5001 31.5C53.5001 31.5877 53.4926 31.674 53.4806 31.7586L53.924 32.1455C54.0005 32.2123 54.0303 32.327 53.9611 32.4412L53.5861 33.0588C53.5168 33.173 53.398 33.2057 53.299 33.176L52.7267 33.0048C52.5833 33.111 52.4247 33.1991 52.254 33.2653L52.1251 33.8214C52.1026 33.918 52.0136 34 51.8751 34L51.1251 34C50.9866 34 50.8976 33.918 50.8751 33.8214L50.7462 33.2653C50.5755 33.1991 50.4169 33.111 50.2735 33.0048L49.7012 33.176C49.6021 33.2057 49.4834 33.173 49.4141 33.0588L49.0391 32.4412Z" fill="url(#paint0_linear_2230_15921)"/>
<path fill-rule="evenodd" clip-rule="evenodd" d="M96 10.3595V31.7349C96 32.5253 96.4398 33.2813 97.1596 33.7624L113.153 44.45C113.693 44.8108 114.353 44.9998 114.993 44.9998C115.633 44.9998 116.292 44.8108 116.832 44.45L132.029 34.2952L123.737 28.7863L114.993 34.6291L104.89 27.8783V16.2657L96 10.3595Z" fill="url(#paint1_linear_2230_15921)"/>
<path fill-rule="evenodd" clip-rule="evenodd" d="M115.147 9.82301L125.26 14.3006V25.4354L134.15 31.3416V9.65053C134.15 8.53367 133.33 7.55426 132.091 7.21061L116.097 0.128869C115.477 -0.0429564 114.817 -0.0429564 114.198 0.128869L98.2038 7.21061C98.1176 7.23491 98.0333 7.2624 97.9512 7.29288L107.114 13.3801L115.147 9.82301Z" fill="url(#paint2_linear_2230_15921)"/>
<mask id="mask0_2230_15921" style="mask-type:alpha" maskUnits="userSpaceOnUse" x="97" y="0" width="38" height="32">
<path fill-rule="evenodd" clip-rule="evenodd" d="M115.147 9.82301L125.26 14.3006V25.4354L134.15 31.3416V9.65053C134.15 8.53367 133.33 7.55426 132.091 7.21061L116.097 0.128869C115.477 -0.0429564 114.817 -0.0429564 114.198 0.128869L98.2038 7.21061C98.1175 7.23491 98.0333 7.2624 97.9512 7.29288L107.114 13.3801L115.147 9.82301Z" fill="url(#paint3_linear_2230_15921)"/>
</mask>
<g mask="url(#mask0_2230_15921)">
<path fill-rule="evenodd" clip-rule="evenodd" d="M132.84 9.66766C132.84 9.66766 117.38 19.9983 116.84 20.3593C116.3 20.7203 115 21.3639 115 21.3639C115 21.3639 113.7 20.7203 113.16 20.3593C112.62 19.9983 97.16 9.66766 97.16 9.66766C96.44 9.18636 96 8.43004 96 7.63934V-14.3455C96 -15.4628 96.82 -16.4426 98.04 -16.7864L114.04 -23.8708C114.66 -24.0427 115.32 -24.0427 115.94 -23.8708L131.94 -16.7864C133.18 -16.4426 134 -15.4628 134 -14.3455V7.63934C134 8.41285 133.56 9.18636 132.84 9.66766Z" fill="white" fill-opacity="0.3"/>
</g>
<mask id="mask1_2230_15921" style="mask-type:alpha" maskUnits="userSpaceOnUse" x="96" y="10" width="37" height="35">
<path fill-rule="evenodd" clip-rule="evenodd" d="M96 10.3596V31.735C96 32.5254 96.4398 33.2815 97.1596 33.7626L113.153 44.4501C113.693 44.811 114.353 45 114.993 45C115.633 45 116.292 44.811 116.832 44.4501L132.029 34.2953L123.737 28.7864L114.993 34.6292L104.89 27.8784V16.2658L96 10.3596Z" fill="url(#paint4_linear_2230_15921)"/>
</mask>
<g mask="url(#mask1_2230_15921)">
<path fill-rule="evenodd" clip-rule="evenodd" d="M97.16 31.3326C97.16 31.3326 112.62 21.0019 113.16 20.641C113.7 20.28 115 19.6364 115 19.6364C115 19.6364 116.3 20.28 116.84 20.641C117.38 21.0019 132.84 31.3326 132.84 31.3326C133.56 31.8139 134 32.5702 134 33.3609L134 55.3458C134 56.4631 133.18 57.4429 131.96 57.7866L115.96 64.8711C115.34 65.043 114.68 65.043 114.06 64.8711L98.06 57.7866C96.82 57.4429 96 56.4631 96 55.3458L96 33.3609C96 32.5874 96.44 31.8139 97.16 31.3326Z" fill="white" fill-opacity="0.3"/>
</g>
<defs>
<linearGradient id="paint0_linear_2230_15921" x1="52.4091" y1="32.6196" x2="51.3539" y2="29.185" gradientUnits="userSpaceOnUse">
<stop stop-color="#008CB8"/>
<stop offset="1" stop-color="#00DAE8"/>
</linearGradient>
<linearGradient id="paint1_linear_2230_15921" x1="105.947" y1="33.9779" x2="130.523" y2="26.1254" gradientUnits="userSpaceOnUse">
<stop stop-color="#008CB8"/>
<stop offset="1" stop-color="#00DAE8"/>
</linearGradient>
<linearGradient id="paint2_linear_2230_15921" x1="107.945" y1="21.3692" x2="132.115" y2="12.7933" gradientUnits="userSpaceOnUse">
<stop stop-color="#008CB8"/>
<stop offset="1" stop-color="#00DAE8"/>
</linearGradient>
<linearGradient id="paint3_linear_2230_15921" x1="107.945" y1="21.3692" x2="132.115" y2="12.7933" gradientUnits="userSpaceOnUse">
<stop stop-color="#008CB8"/>
<stop offset="1" stop-color="#00DAE8"/>
</linearGradient>
<linearGradient id="paint4_linear_2230_15921" x1="105.947" y1="33.9779" x2="130.523" y2="26.1254" gradientUnits="userSpaceOnUse">
<stop stop-color="#008CB8"/>
<stop offset="1" stop-color="#00DAE8"/>
</linearGradient>
</defs>
</svg>
